:SAMPLES-PER-SECOND 30
:FULLY-SPECIFIED
:DEGREES
578
root  25.9432 38.4619 -34.7662 27.9427 -15.6398 5.3718
RightUpLeg  -61.7693 -28.628 23.5302
RightLeg  25.6802 -2.16832 -1.41858
RightFoot  -2.45332 0.902645 -11.782
RightToes  2.91037e-010 0 -3.6325e-017
Spine  68.2268 -2.96652 4.63591
Spine1  16.5561 -0.528563 -0.653907
HEad  -28.0786 8.29864 -10.0601
LeftShoulder1  2.55223 -28.1119 0.482805
LeftArm  -75.3105 -56.1452 33.646
LeftForeArm  -21.3626 4.82133 3.11981
LeftHand  -0.244104 0.0205437 5.32207
RightShoulder  -0.220833 4.84341 -12.6433
RightArm  -98.0827 61.7978 -35.4326
RightForeArm  -30.3811 -3.29019 -4.70351
RightHand  -0.127719 -6.43278 9.13617
LeftUpLeg  -52.8918 10.9216 -3.52818
LeftLeg  47.6637 3.4825 4.51922
LeftFoot  -2.17691 0.46015 -5.56504
LeftToes  -1.10052e-010 1.3781e-010 -2.1811e-011
579
root  26.4553 38.5478 -35.2618 29.1511 -14.3601 5.05638
RightUpLeg  -63.1062 -29.4459 25.42
RightLeg  22.6663 -1.47468 -0.656805
RightFoot  -0.230433 1.1535 -11.8263
RightToes  2.91037e-010 0 -3.6325e-017
Spine  68.0521 -3.2366 4.90234
Spine1  15.6417 -0.612859 -0.39551
HEad  -28.8136 9.27888 -10.5054
LeftShoulder1  2.7761 -27.9817 -0.353105
LeftArm  -76.4296 -56.4675 34.3776
LeftForeArm  -20.581 4.81203 3.29349
LeftHand  -0.244104 0.0205437 5.32207
RightShoulder  -0.228765 5.16804 -12.6489
RightArm  -96.8122 61.6215 -34.7187
RightForeArm  -30.5284 -3.56559 -4.57717
RightHand  -0.0877402 -5.95681 9.33345
LeftUpLeg  -51.3375 11.009 -2.02945
LeftLeg  46.9537 4.39508 5.43411
LeftFoot  -4.04902 0.276604 -3.93388
LeftToes  -1.10052e-010 1.3781e-010 -2.1811e-011
580
root  26.9791 38.6302 -35.7842 30.0762 -12.9567 4.92459
RightUpLeg  -62.243 -28.6487 23.0664
RightLeg  19.3672 -4.62774 0.533536
RightFoot  2.02451 1.41714 -11.9116
RightToes  2.91037e-010 0 -3.6325e-017
Spine  68.0471 -3.38146 4.79974
Spine1  15.1822 -0.828134 0.0168586
HEad  -29.9525 10.3111 -11.118
LeftShoulder1  2.93896 -27.1589 -1.246
LeftArm  -78.5698 -56.8745 36.5338
LeftForeArm  -19.8954 4.81555 3.37838
LeftHand  -0.244104 0.0205437 5.32207
RightShoulder  -0.293947 5.95615 -13.1256
RightArm  -95.241 61.0491 -32.7941
RightForeArm  -30.3752 -3.5317 -4.75814
RightHand  -0.0206061 -5.19062 9.70209
LeftUpLeg  -49.7132 11.6528 -1.26338
LeftLeg  43.6287 6.54101 7.01402
LeftFoot  -5.46644 0.141231 -2.15716
LeftToes  -1.10052e-010 1.3781e-010 -2.1811e-011
581
root  27.5718 38.632 -36.3378 30.5758 -11.75 4.78183
RightUpLeg  -59.3458 -25.5793 15.9443
RightLeg  16.5148 -12.508 2.11535
RightFoot  4.42535 1.7655 -12.4646
RightToes  2.91037e-010 0 -3.6325e-017
Spine  68.032 -3.25551 4.24457
Spine1  15.582 -1.40355 1.00066
HEad  -31.4882 11.5442 -12.2513
LeftShoulder1  2.99496 -24.9541 -2.29353
LeftArm  -81.7989 -57.4169 40.3432
LeftForeArm  -19.9105 4.83971 3.23975
LeftHand  -0.244104 0.0205437 5.32207
RightShoulder  -0.516996 7.02206 -15.2642
RightArm  -94.5271 60.2569 -29.6145
RightForeArm  -30.2011 -3.14089 -5.61481
RightHand  0.0272963 -4.68082 10.0425
LeftUpLeg  -47.806 12.4505 -0.884759
LeftLeg  38.5201 8.84848 7.85567
LeftFoot  -5.33773 0.129904 -1.81509
LeftToes  -1.10052e-010 1.3781e-010 -2.1811e-011
582
root  28.2889 38.5269 -36.9241 30.669 -10.9367 4.36563
RightUpLeg  -57.531 -22.8621 10.3965
RightLeg  14.5345 -18.7973 3.34091
RightFoot  6.79679 2.08617 -12.7223
RightToes  2.91037e-010 0 -3.6325e-017
Spine  68.1273 -3.20343 4.65378
Spine1  15.547 -0.826542 0.558681
HEad  -31.7189 11.0674 -12.3073
LeftShoulder1  2.6528 -25.2127 -0.879256
LeftArm  -83.3673 -57.7551 40.8741
LeftForeArm  -18.7965 4.79402 3.66262
LeftHand  -0.244104 0.0205437 5.32207
RightShoulder  -0.379832 7.57914 -13.54
RightArm  -92.8788 59.2929 -28.4464
RightForeArm  -30.4872 -2.92122 -5.53895
RightHand  0.0451164 -4.51718 10.4088
LeftUpLeg  -45.6487 13.0613 -0.615597
LeftLeg  33.0994 10.06 7.3526
LeftFoot  -4.88601 0.295284 -4.76877
LeftToes  -1.10052e-010 1.3781e-010 -2.1811e-011
583
root  29.1206 38.3504 -37.5507 30.5431 -10.3853 3.87849
RightUpLeg  -56.5604 -20.9195 6.37832
RightLeg  12.8581 -23.238 4.21589
RightFoot  8.91241 2.26105 -12.2581
RightToes  2.91037e-010 0 -3.6325e-017
Spine  68.3787 -3.27076 5.28113
Spine1  15.1141 0.190298 -0.730282
HEad  -31.163 9.93317 -12.111
LeftShoulder1  2.219 -26.627 1.2789
LeftArm  -83.6151 -57.9612 39.5524
LeftForeArm  -17.1038 4.73575 4.23928
LeftHand  -0.244104 0.0205437 5.32207
RightShoulder  -0.0770906 7.93166 -10.377
RightArm  -90.35 58.4063 -27.9122
RightForeArm  -30.4887 -2.94701 -4.96331
RightHand  0.0720577 -4.31606 11.2484
LeftUpLeg  -44.3193 13.4291 -0.93169
LeftLeg  29.4789 9.7571 6.25966
LeftFoot  -6.1884 0.437953 -8.9987
LeftToes  -1.10052e-010 1.3781e-010 -2.1811e-011
584
root  30.0027 38.1566 -38.2263 30.2769 -9.83505 3.79816
RightUpLeg  -55.666 -19.4031 2.33937
RightLeg  10.564 -27.4866 5.22798
RightFoot  11.1634 2.48957 -12.0593
RightToes  2.91037e-010 0 -3.6325e-017
Spine  68.6726 -3.26036 4.91951
Spine1  14.9766 0.345042 -1.25165
HEad  -31.2536 9.64876 -12.5781
LeftShoulder1  2.10788 -26.3922 1.62081
LeftArm  -84.8032 -58.2968 40.5922
LeftForeArm  -16.2542 4.75836 4.26168
LeftHand  -0.244104 0.0205437 5.32207
RightShoulder  -0.0642569 8.88385 -10.2042
RightArm  -87.7558 57.3156 -25.4333
RightForeArm  -29.8252 -2.8622 -4.94305
RightHand  0.140417 -3.80315 12.3798
LeftUpLeg  -44.9495 13.8276 -2.53169
LeftLeg  28.963 8.28097 5.26773
LeftFoot  -8.78443 0.286499 -10.1069
LeftToes  -1.10052e-010 1.3781e-010 -2.1811e-011
585
root  30.8793 37.9628 -38.9386 29.7306 -9.23137 4.14403
RightUpLeg  -54.7596 -18.6999 -1.30565
RightLeg  8.04847 -30.8227 6.39149
RightFoot  13.4917 2.65201 -11.61
RightToes  2.91037e-010 0 -3.6325e-017
Spine  68.9749 -3.22057 4.51661
Spine1  14.9813 0.486726 -1.70855
HEad  -31.5943 8.7868 -12.2294
LeftShoulder1  1.9974 -26.3475 2.02708
LeftArm  -86.8053 -58.8314 42.5297
LeftForeArm  -15.4735 4.64174 4.19958
LeftHand  -0.244104 0.0205437 5.32207
RightShoulder  -0.0156005 10.0741 -9.74535
RightArm  -85.0207 55.4319 -23.4049
RightForeArm  -29.5784 -2.65025 -4.89478
RightHand  0.217903 -3.23482 13.0989
LeftUpLeg  -47.1088 14.58 -5.18744
LeftLeg  30.8058 6.47429 4.49937
LeftFoot  -10.3078 0.127571 -7.58176
LeftToes  -1.10052e-010 1.3781e-010 -2.1811e-011
586
root  31.726 37.7693 -39.6494 28.8922 -8.72887 4.43961
RightUpLeg  -53.8855 -19.0708 -3.60423
RightLeg  6.50812 -32.3223 7.13664
RightFoot  13.9264 1.84367 -7.73851
RightToes  2.91037e-010 0 -3.6325e-017
Spine  69.2072 -3.16116 4.39356
Spine1  15.5446 0.839711 -2.28772
HEad  -32.0425 7.25454 -11.4437
LeftShoulder1  1.7817 -26.2398 2.81915
LeftArm  -89.4049 -59.6526 44.4704
LeftForeArm  -14.5622 3.94708 4.14563
LeftHand  -0.244104 0.0205437 5.32207
RightShoulder  0.108532 10.9794 -8.7501
RightArm  -83.655 53.4577 -22.5838
RightForeArm  -29.8228 -2.45102 -5.08955
RightHand  0.247152 -3.05642 13.4899
LeftUpLeg  -49.3636 15.8852 -7.99405
LeftLeg  33.0751 4.6776 3.63203
LeftFoot  -10.0978 0.111441 -4.78952
LeftToes  -1.10052e-010 1.3781e-010 -2.1811e-011
587
root  32.516 37.6119 -40.3121 28.139 -8.39499 4.44902
RightUpLeg  -52.9082 -20.2142 -4.63557
RightLeg  5.62871 -33.1079 7.59512
RightFoot  10.3498 0.0172266 0.492025
RightToes  2.91037e-010 0 -3.6325e-017
Spine  69.378 -3.14866 4.44197
Spine1  16.2934 1.45287 -3.21716
HEad  -32.211 5.44083 -10.9141
LeftShoulder1  1.53655 -26.1539 3.73381
LeftArm  -91.1558 -60.6117 45.097
LeftForeArm  -13.5426 3.04181 4.07916
LeftHand  -0.244104 0.0205437 5.32207
RightShoulder  0.277205 11.3617 -7.47038
RightArm  -83.1792 52.1397 -22.5521
RightForeArm  -29.811 -2.56205 -5.3703
RightHand  0.262261 -3.03417 14.0976
LeftUpLeg  -51.0936 17.6222 -10.5567
LeftLeg  34.524 2.62436 2.3072
LeftFoot  -9.63067 0.109917 -3.43074
LeftToes  -1.10052e-010 1.3781e-010 -2.1811e-011
588
root  33.2165 37.5309 -40.9052 27.8871 -8.1344 4.22748
RightUpLeg  -52.616 -22.2124 -3.98368
RightLeg  5.33649 -33.0609 7.75226
RightFoot  3.87446 -1.11983 8.46864
RightToes  2.91037e-010 0 -3.6325e-017
Spine  69.5121 -3.19337 4.38637
Spine1  16.517 2.04069 -4.35081
HEad  -32.1492 3.98387 -10.7526
LeftShoulder1  1.3665 -26.2757 4.40501
LeftArm  -91.1762 -61.3618 44.2133
LeftForeArm  -12.7437 2.61408 4.00419
LeftHand  -0.244104 0.0205437 5.32207
RightShoulder  0.394914 11.6656 -6.62585
RightArm  -81.7101 51.3661 -22.3695
RightForeArm  -29.3421 -3.18385 -5.30478
RightHand  0.344774 -2.54447 14.8693
LeftUpLeg  -52.6439 19.2403 -12.9033
LeftLeg  35.014 0.594945 0.823391
LeftFoot  -9.603 0.0901307 -2.12882
LeftToes  -1.10052e-010 1.3781e-010 -2.1811e-011
589
root  33.8164 37.5949 -41.4691 28.0782 -7.80374 3.73177
RightUpLeg  -55.924 -26.5567 2.1928
RightLeg  8.43219 -27.3384 5.5078
RightFoot  -1.53183 -0.934679 10.4847
RightToes  2.91037e-010 0 -3.6325e-017
Spine  69.6434 -3.24937 4.34422
Spine1  16.2766 2.37827 -5.32588
HEad  -32.3123 3.09478 -10.5149
LeftShoulder1  1.24609 -26.6119 4.91761
LeftArm  -90.2581 -61.6281 42.6144
LeftForeArm  -12.2607 2.78496 4.14223
LeftHand  -0.244104 0.0205437 5.32207
RightShoulder  0.445275 12.3268 -6.38552
RightArm  -78.8849 50.7572 -21.8848
RightForeArm  -29.0041 -4.0374 -4.77564
RightHand  0.495466 -1.51061 15.1913
LeftUpLeg  -53.9819 20.3519 -14.8377
LeftLeg  34.2636 -0.767569 -0.193029
LeftFoot  -8.77146 0.0493518 0.0210557
LeftToes  -1.10052e-010 1.3781e-010 -2.1811e-011
590
root  34.2962 37.7865 -42.036 28.3214 -7.24019 2.93465
RightUpLeg  -64.3897 -32.9236 16.1478
RightLeg  15.8133 -12.8966 0.408202
RightFoot  -3.62617 -0.52439 7.4721
RightToes  2.91037e-010 0 -3.6325e-017
Spine  69.7314 -3.30803 4.62003
Spine1  16.2167 2.55166 -5.9074
HEad  -32.8525 2.44813 -9.95755
LeftShoulder1  1.15958 -26.9931 5.29952
LeftArm  -89.5318 -61.5199 41.1286
LeftForeArm  -11.8154 2.89685 4.4885
LeftHand  -0.244104 0.0205437 5.32207
RightShoulder  0.511339 13.1621 -6.09655
RightArm  -76.6213 50.4491 -21.6225
RightForeArm  -28.7273 -4.43023 -4.19907
RightHand  0.631258 -0.460524 14.9564
LeftUpLeg  -54.7768 21.18 -16.1284
LeftLeg  32.4069 -1.72589 -0.819523
LeftFoot  -6.66747 -0.0383805 1.94084
LeftToes  -1.10052e-010 1.3781e-010 -2.1811e-011
